<svg xmlns="http://www.w3.org/2000/svg" version="1.1" xmlns:xlink="http://www.w3.org/1999/xlink" xmlns:svgjs="http://svgjs.dev/svgjs" width="2000" height="1500" viewBox="0 0 2000 1500"><rect width="2000" height="1500" fill="#282634"></rect><g transform="matrix(0.75,0,0,0.75,250,1.1368683772161603e-13)"><svg viewBox="0 0 280 280" data-background-color="#282634" preserveAspectRatio="xMidYMid meet" height="2000" width="2000" xmlns="http://www.w3.org/2000/svg" xmlns:xlink="http://www.w3.org/1999/xlink"><g id="tight-bounds" transform="matrix(1,0,0,1,0,-2.842170943040401e-14)"><svg viewBox="0 0 280 280" height="280" width="280"><g><svg viewBox="0 0 280 280" height="280" width="280"><g><svg viewBox="0 0 280 280" height="280" width="280"><g id="textblocktransform"><svg viewBox="0 0 280 280" height="280" width="280" id="textblock"><g><svg viewBox="0 0 280 280" height="280" width="280"><g transform="matrix(1,0,0,1,74.00336708925556,82.67161103632291)"><svg viewBox="0 0 131.99326582148888 114.65677792735417" height="114.65677792735417" width="131.99326582148888"><g id="icon-0"><svg xmlns="http://www.w3.org/2000/svg" data-name="Layer 1" viewBox="0.4799534754361707 6.959230591131446 99.0508264328145 86.04112140984081" x="0" y="0" height="114.65677792735417" width="131.99326582148888" class="icon-xg-0" data-fill-palette-color="accent" id="xg-0"><path d="M4.8 84.62h5.37A11.71 11.71 0 0 0 21.39 93a11.57 11.57 0 0 0 11.22-8.41H60.82A11.71 11.71 0 0 0 72 93a11.57 11.57 0 0 0 11.22-8.41h6.19a4.31 4.31 0 0 0 4.32-4.32V57.47A31.69 31.69 0 0 1 41 33.79H32.71a7.74 7.74 0 0 0-6.19 3.15c-0.12 0.12-0.23 0.35-0.35 0.47L17.17 51l-5.24 0.82a7.58 7.58 0 0 0-7.59 7.6v11.1A4.41 4.41 0 0 0 0.48 74.8v5.49A4.31 4.31 0 0 0 4.8 84.62ZM72 75.5a5.94 5.94 0 0 1 5.84 5.84A5.84 5.84 0 1 1 72 75.5Zm-50.64 0a5.94 5.94 0 0 1 5.84 5.84 5.86 5.86 0 0 1-5.84 5.84 5.94 5.94 0 0 1-5.84-5.84A5.86 5.86 0 0 1 21.39 75.5Zm51.32-14.9A26.82 26.82 0 1 0 45.89 33.79 26.85 26.85 0 0 0 72.71 60.61ZM92.65 29.09a19.83 19.83 0 0 1 0 9.4H86.2a45.07 45.07 0 0 0 0-9.4ZM90.9 24.36H85.44a29.65 29.65 0 0 0-3.37-8.79A20.62 20.62 0 0 1 90.9 24.36ZM85.44 43.22H90.9A20.62 20.62 0 0 1 82.06 52 29.65 29.65 0 0 0 85.44 43.22ZM75.07 14.58c2.21 1.49 4.29 5 5.51 9.77H75.07Zm0 14.5h6.36a41 41 0 0 1 0 9.4H75.07Zm0 14.13h5.51C79.36 48 77.28 51.5 75.07 53Zm-20.56 0H60A29.65 29.65 0 0 0 63.35 52 20.62 20.62 0 0 1 54.52 43.22ZM70.34 53c-2.21-1.49-4.29-5-5.51-9.77h5.51Zm0-38.41v9.77H64.83C66.06 19.55 68.13 16.07 70.34 14.58ZM64 29.09h6.36v9.4H64a41 41 0 0 1 0-9.4Zm-0.63-13.53A29.65 29.65 0 0 0 60 24.36H54.52A20.62 20.62 0 0 1 63.35 15.56ZM52.2 33.79a20.43 20.43 0 0 1 0.57-4.7h6.45a45.07 45.07 0 0 0 0 9.4H52.76A20.43 20.43 0 0 1 52.2 33.79Z" fill="#dcdcdc" data-fill-palette-color="accent"></path></svg></g></svg></g><g id="text-0"><path d="M11.451 90.931l1.236 1.908c-0.385 0.158-0.781 0.421-1.189 0.791-0.407 0.37-0.751 0.92-1.029 1.652v0l-2.458-0.765c0.346-0.922 0.796-1.666 1.353-2.231 0.556-0.565 1.252-1.016 2.087-1.355zM22.575 99.053l-2.527-0.787c0.124-0.633 0.137-1.203 0.039-1.708-0.092-0.503-0.229-0.999-0.414-1.488v0l2.016-0.632c0.502 0.733 0.831 1.46 0.986 2.181 0.162 0.723 0.129 1.534-0.1 2.434zM13.052 103.91v0c-0.972-0.303-1.841-0.727-2.607-1.272-0.763-0.552-1.384-1.198-1.861-1.938-0.482-0.749-0.807-1.559-0.975-2.43-0.169-0.864-0.144-1.765 0.076-2.705v0l2.477 0.772c-0.079 0.91 0.231 1.756 0.93 2.536 0.708 0.776 1.675 1.354 2.9 1.736v0c0.633 0.197 1.245 0.318 1.837 0.364 0.592 0.046 1.139 0.015 1.64-0.092 0.501-0.107 0.948-0.289 1.342-0.546 0.401-0.255 0.704-0.595 0.91-1.02v0l2.527 0.787c-0.339 0.924-0.828 1.696-1.466 2.315-0.634 0.628-1.359 1.103-2.176 1.426-0.823 0.321-1.712 0.489-2.667 0.507-0.959 0.008-1.922-0.138-2.887-0.44z" fill="#ff4057" data-fill-palette-color="primary"></path><path d="M17.529 78.265l-2.277-1.082c0.472-0.864 1.07-1.569 1.792-2.114 0.722-0.545 1.512-0.915 2.369-1.109 0.851-0.198 1.755-0.24 2.711-0.125 0.948 0.118 1.891 0.4 2.83 0.846v0c0.932 0.443 1.737 0.999 2.415 1.669 0.681 0.663 1.204 1.391 1.57 2.182 0.368 0.785 0.566 1.628 0.593 2.529 0.027 0.901-0.131 1.795-0.475 2.682v0l-2.315-1.1c0.2-0.893 0.003-1.794-0.592-2.702-0.598-0.902-1.483-1.632-2.655-2.189v0c-0.598-0.284-1.188-0.491-1.768-0.619-0.58-0.129-1.139-0.171-1.678-0.126-0.53 0.042-1.014 0.167-1.452 0.376-0.43 0.205-0.786 0.499-1.068 0.882zM18.944 87.208v0c-0.939-0.446-1.745-0.999-2.42-1.66-0.678-0.654-1.198-1.38-1.56-2.177-0.365-0.791-0.561-1.63-0.589-2.516-0.033-0.888 0.111-1.777 0.434-2.666v0l2.248 1.068c-0.207 0.89-0.006 1.777 0.601 2.66 0.61 0.877 1.505 1.595 2.683 2.155v0c0.598 0.284 1.191 0.492 1.777 0.625 0.586 0.132 1.144 0.185 1.673 0.158 0.524-0.029 1.002-0.142 1.435-0.338 0.43-0.205 0.778-0.499 1.045-0.882v0l2.315 1.1c-0.485 0.858-1.084 1.55-1.798 2.077-0.716 0.532-1.498 0.902-2.345 1.109-0.854 0.204-1.755 0.247-2.703 0.129-0.951-0.128-1.883-0.408-2.796-0.842z" fill="#ff4057" data-fill-palette-color="primary"></path><path d="M22.142 65.078l1.687-2.382 1.463 0.613 11.057 7.829-1.886 2.664zM30.998 52.299v0c0.351-0.495 0.778-0.893 1.282-1.194 0.51-0.297 1.063-0.482 1.661-0.554 0.594-0.067 1.206-0.013 1.836 0.159 0.63 0.173 1.238 0.466 1.824 0.881v0l8.385 5.937-1.856 2.621-6.703-4.746c-0.495-0.351-0.967-0.68-1.415-0.989-0.454-0.313-0.886-0.546-1.298-0.701-0.408-0.16-0.782-0.212-1.122-0.153-0.331 0.056-0.641 0.29-0.931 0.699v0c-0.073 0.102-0.208 0.336-0.406 0.7-0.192 0.368-0.339 0.841-0.44 1.419v0l-1.725-1.222c0.045-0.558 0.145-1.085 0.3-1.582 0.159-0.503 0.362-0.927 0.608-1.275zM30.008 57.264v0c0.387 0.009 0.756 0.078 1.109 0.209 0.358 0.134 0.705 0.302 1.039 0.505 0.331 0.209 0.665 0.437 1.003 0.684 0.338 0.248 0.697 0.506 1.078 0.776v0l6.924 4.903-1.874 2.647-6.702-4.746c-0.495-0.351-0.965-0.683-1.409-0.997-0.45-0.318-0.878-0.558-1.286-0.718-0.408-0.16-0.784-0.209-1.128-0.145-0.339 0.068-0.647 0.298-0.925 0.691v0c-0.125 0.176-0.277 0.458-0.457 0.843-0.174 0.39-0.299 0.809-0.377 1.258v0l-1.725-1.221c0.041-0.492 0.139-0.987 0.294-1.484 0.151-0.491 0.366-0.933 0.644-1.326v0c0.476-0.672 1.013-1.141 1.613-1.409 0.601-0.258 1.328-0.415 2.179-0.47z" fill="#ff4057" data-fill-palette-color="primary"></path><path d="M39.358 42.981l2.13-1.996 1.311 0.893 9.264 9.886-2.381 2.232zM50.594 32.235v0c0.443-0.415 0.941-0.72 1.495-0.914 0.559-0.189 1.138-0.259 1.739-0.21 0.595 0.054 1.184 0.228 1.767 0.524 0.583 0.295 1.119 0.705 1.611 1.229v0l7.025 7.496-2.343 2.196-5.616-5.992c-0.415-0.443-0.811-0.86-1.189-1.253-0.382-0.397-0.759-0.713-1.131-0.947-0.367-0.239-0.723-0.364-1.068-0.375-0.335-0.011-0.686 0.155-1.053 0.499v0c-0.092 0.086-0.271 0.287-0.537 0.604-0.262 0.322-0.501 0.756-0.716 1.302v0l-1.445-1.542c0.156-0.538 0.359-1.034 0.61-1.49 0.257-0.46 0.54-0.836 0.851-1.127zM48.63 36.901v0c0.377 0.086 0.725 0.228 1.044 0.426 0.324 0.203 0.63 0.437 0.917 0.703 0.282 0.271 0.564 0.561 0.846 0.871 0.281 0.31 0.581 0.636 0.901 0.977v0l5.802 6.191-2.367 2.218-5.616-5.993c-0.415-0.443-0.808-0.863-1.18-1.259-0.377-0.402-0.749-0.722-1.116-0.962-0.367-0.239-0.726-0.362-1.076-0.367-0.345-0.001-0.694 0.163-1.045 0.491v0c-0.158 0.148-0.363 0.393-0.616 0.735-0.248 0.347-0.456 0.733-0.622 1.157v0l-1.445-1.542c0.139-0.474 0.334-0.939 0.585-1.395 0.247-0.451 0.545-0.841 0.897-1.17v0c0.6-0.563 1.221-0.915 1.862-1.057 0.641-0.132 1.384-0.14 2.229-0.024z" fill="#ff4057" data-fill-palette-color="primary"></path><path d="M67.652 23.02l-1.371-2.116c0.863-0.451 1.735-0.709 2.616-0.773 0.885-0.058 1.742 0.047 2.573 0.315 0.836 0.264 1.616 0.686 2.34 1.264 0.72 0.572 1.338 1.257 1.853 2.053v0c0.231 0.357 0.439 0.729 0.624 1.116v0l-7.7 4.99-1.28-1.976 5.189-3.362c-0.25-0.386-0.557-0.719-0.921-0.999-0.36-0.274-0.764-0.486-1.211-0.636-0.443-0.145-0.897-0.217-1.361-0.216-0.47 0.005-0.92 0.119-1.351 0.34zM73.111 31.637v0c0.164-0.106 0.355-0.259 0.575-0.46 0.229-0.198 0.449-0.436 0.659-0.714 0.211-0.278 0.409-0.581 0.595-0.909 0.176-0.33 0.302-0.669 0.376-1.016v0l1.962 0.873c-0.093 0.933-0.368 1.772-0.825 2.516-0.455 0.735-1.191 1.432-2.209 2.093v0c-0.825 0.535-1.706 0.869-2.642 1.001-0.934 0.123-1.845 0.057-2.734-0.198-0.885-0.25-1.731-0.665-2.54-1.246-0.807-0.591-1.5-1.334-2.081-2.23v0c-0.554-0.855-0.937-1.753-1.149-2.696-0.222-0.945-0.278-1.86-0.17-2.745 0.104-0.89 0.357-1.719 0.758-2.485 0.403-0.776 0.957-1.422 1.662-1.937v0l1.394 2.151c-0.482 0.462-0.792 0.983-0.932 1.563-0.133 0.577-0.16 1.151-0.08 1.723 0.089 0.574 0.243 1.118 0.46 1.634 0.218 0.515 0.435 0.94 0.651 1.274v0c0.379 0.585 0.8 1.081 1.263 1.487 0.467 0.412 0.972 0.704 1.515 0.876 0.534 0.169 1.09 0.22 1.669 0.153 0.589-0.066 1.197-0.302 1.823-0.708z" fill="#ff4057" data-fill-palette-color="primary"></path><path d="M78.318 14.24l2.607-1.242 0.987 1.244 3.525 7.395 0.023 0.047 2.283 4.788-2.928 1.396zM83.691 15.446l-1.175-2.465c0.295-0.419 0.697-0.823 1.207-1.213 0.51-0.39 1.246-0.814 2.209-1.273v0l1.45 3.041c-0.513 0.09-1.096 0.279-1.747 0.566v0c-0.353 0.168-0.698 0.367-1.036 0.598-0.332 0.228-0.634 0.476-0.908 0.746z" fill="#ff4057" data-fill-palette-color="primary"></path><path d="M103.551 6.789l-0.819 2.12c-0.354-0.219-0.8-0.385-1.338-0.497-0.539-0.113-1.186-0.067-1.942 0.137v0l-0.823-2.439c0.95-0.262 1.816-0.334 2.599-0.215 0.783 0.118 1.558 0.416 2.323 0.894zM103.511 20.561l-0.847-2.507c0.586-0.271 1.054-0.595 1.405-0.972 0.354-0.37 0.674-0.772 0.961-1.208v0l1.696 1.26c-0.299 0.837-0.694 1.53-1.186 2.079-0.49 0.556-1.166 1.005-2.029 1.348zM93.986 15.707v0c-0.326-0.965-0.493-1.917-0.501-2.856-0.002-0.942 0.157-1.824 0.476-2.646 0.323-0.831 0.788-1.569 1.393-2.215 0.6-0.644 1.344-1.153 2.234-1.528v0l0.83 2.458c-0.783 0.471-1.285 1.218-1.506 2.243-0.212 1.029-0.113 2.151 0.298 3.366v0c0.212 0.628 0.474 1.195 0.785 1.701 0.311 0.506 0.657 0.93 1.037 1.273 0.381 0.343 0.791 0.598 1.231 0.766 0.442 0.175 0.895 0.22 1.36 0.136v0l0.847 2.508c-0.947 0.269-1.859 0.326-2.735 0.173-0.881-0.144-1.691-0.452-2.432-0.923-0.743-0.478-1.402-1.098-1.976-1.861-0.57-0.772-1.017-1.637-1.341-2.595z" fill="#ff4057" data-fill-palette-color="primary"></path><path d="M117.276 4.228l-0.463-2.478c0.97-0.089 1.874 0.005 2.714 0.281 0.84 0.283 1.594 0.706 2.259 1.27 0.673 0.563 1.234 1.249 1.683 2.059 0.448 0.803 0.759 1.671 0.933 2.603v0c0.078 0.418 0.129 0.842 0.153 1.27v0l-9.019 1.685-0.433-2.314 6.078-1.135c-0.085-0.453-0.242-0.877-0.472-1.274-0.229-0.39-0.521-0.74-0.877-1.05-0.355-0.303-0.747-0.542-1.177-0.716-0.437-0.174-0.896-0.241-1.379-0.201zM119.047 14.275v0c0.192-0.036 0.427-0.105 0.706-0.207 0.287-0.096 0.581-0.233 0.882-0.409 0.3-0.177 0.599-0.382 0.896-0.615 0.289-0.238 0.534-0.504 0.734-0.797v0l1.483 1.554c-0.441 0.827-1.015 1.499-1.721 2.013-0.7 0.507-1.646 0.872-2.839 1.095v0c-0.967 0.181-1.908 0.154-2.825-0.079-0.911-0.241-1.728-0.649-2.453-1.223-0.723-0.567-1.348-1.274-1.875-2.119-0.521-0.853-0.88-1.805-1.076-2.854v0c-0.187-1.001-0.199-1.978-0.036-2.93 0.154-0.958 0.45-1.826 0.886-2.603 0.435-0.784 0.984-1.454 1.647-2.011 0.668-0.565 1.426-0.951 2.274-1.159v0l0.47 2.52c-0.621 0.244-1.107 0.608-1.456 1.091-0.343 0.483-0.586 1.003-0.73 1.563-0.136 0.565-0.201 1.127-0.196 1.686 0.005 0.56 0.044 1.035 0.118 1.426v0c0.128 0.686 0.329 1.304 0.602 1.856 0.275 0.559 0.631 1.021 1.068 1.386 0.429 0.36 0.924 0.618 1.486 0.776 0.57 0.163 1.221 0.176 1.955 0.04z" fill="#ff4057" data-fill-palette-color="primary"></path><path d="M151.882 2.381l-1.505 1.703c-0.255-0.329-0.616-0.639-1.082-0.932-0.466-0.293-1.088-0.475-1.867-0.547v0l0.076-2.573c0.981 0.085 1.819 0.319 2.512 0.703 0.693 0.383 1.316 0.932 1.866 1.646zM147.053 15.279l0.078-2.645c0.643-0.051 1.195-0.191 1.656-0.422 0.46-0.224 0.901-0.49 1.321-0.799v0l1.151 1.772c-0.571 0.681-1.183 1.193-1.835 1.536-0.652 0.351-1.443 0.536-2.371 0.558zM139.812 7.414v0c0.03-1.018 0.205-1.969 0.524-2.852 0.326-0.883 0.782-1.655 1.366-2.315 0.592-0.666 1.284-1.197 2.078-1.592 0.786-0.395 1.661-0.614 2.626-0.655v0l-0.077 2.593c-0.898 0.169-1.629 0.695-2.192 1.579-0.557 0.891-0.854 1.977-0.892 3.26v0c-0.02 0.662 0.028 1.285 0.143 1.867 0.115 0.583 0.292 1.101 0.53 1.554 0.238 0.454 0.534 0.836 0.887 1.147 0.353 0.317 0.763 0.518 1.228 0.601v0l-0.078 2.646c-0.982-0.078-1.856-0.341-2.625-0.79-0.775-0.442-1.428-1.012-1.959-1.711-0.53-0.706-0.932-1.517-1.205-2.433-0.266-0.922-0.384-1.888-0.354-2.899z" fill="#ff4057" data-fill-palette-color="primary"></path><path d="M165.716 4.826l0.43-2.485c0.96 0.222 1.799 0.608 2.518 1.157 0.719 0.549 1.288 1.21 1.706 1.983 0.42 0.766 0.703 1.626 0.85 2.578 0.141 0.945 0.123 1.929-0.054 2.953v0c-0.176 1.017-0.495 1.942-0.957 2.776-0.456 0.834-1.015 1.534-1.679 2.098-0.657 0.566-1.416 0.983-2.277 1.253-0.86 0.269-1.764 0.357-2.71 0.264v0l0.436-2.526c0.914-0.047 1.729-0.48 2.444-1.298 0.708-0.819 1.172-1.868 1.393-3.146v0c0.113-0.653 0.153-1.276 0.121-1.869-0.032-0.593-0.142-1.143-0.331-1.649-0.183-0.499-0.434-0.931-0.752-1.298-0.313-0.358-0.692-0.622-1.138-0.791zM157.485 8.595v0c0.177-1.024 0.493-1.95 0.947-2.777 0.448-0.829 1.007-1.525 1.677-2.089 0.664-0.565 1.419-0.979 2.264-1.244 0.847-0.271 1.742-0.371 2.685-0.3v0l-0.424 2.454c-0.913 0.04-1.713 0.472-2.4 1.294-0.68 0.824-1.131 1.878-1.354 3.164v0c-0.113 0.653-0.154 1.279-0.123 1.879 0.031 0.6 0.13 1.151 0.298 1.654 0.169 0.496 0.406 0.927 0.711 1.291 0.313 0.358 0.69 0.615 1.131 0.769v0l-0.437 2.526c-0.957-0.236-1.785-0.627-2.483-1.173-0.705-0.547-1.272-1.2-1.7-1.96-0.427-0.767-0.71-1.623-0.851-2.568-0.133-0.95-0.113-1.924 0.059-2.92z" fill="#ff4057" data-fill-palette-color="primary"></path><path d="M179.48 5.592l2.745 0.897-0.136 1.562-4.214 12.898-3.083-1.007zM189.654 10.666v0c0.192 0.378 0.305 0.786 0.338 1.222 0.042 0.432 0.032 0.869-0.032 1.31-0.057 0.444-0.148 0.88-0.273 1.309-0.119 0.431-0.244 0.848-0.377 1.252v0l-2.469 7.558-0.165 0.507-3.103-1.013 2.55-7.807c0.188-0.577 0.343-1.139 0.463-1.687 0.118-0.541 0.15-1.044 0.097-1.509-0.051-0.472-0.203-0.873-0.454-1.205-0.242-0.336-0.652-0.598-1.228-0.786v0c-0.239-0.078-0.57-0.142-0.994-0.193-0.422-0.057-0.85-0.061-1.284-0.012v0l0.64-1.959c0.542-0.087 1.106-0.13 1.693-0.129 0.591 0.01 1.142 0.098 1.653 0.264v0c0.762 0.249 1.355 0.615 1.776 1.098 0.422 0.483 0.811 1.076 1.169 1.78z" fill="#ff4057" data-fill-palette-color="primary"></path><path d="M201.108 16.398l-3.578 7.52c-0.258 0.542-0.388 1.001-0.389 1.379-0.002 0.378 0.092 0.708 0.281 0.991 0.187 0.29 0.438 0.533 0.754 0.729 0.307 0.2 0.646 0.388 1.017 0.565v0l-0.849 1.786c-0.223-0.067-0.443-0.141-0.66-0.221v0c-0.182-0.071-0.402-0.161-0.66-0.268-0.255-0.114-0.502-0.227-0.742-0.341v0c-0.246-0.117-0.487-0.243-0.723-0.379-0.246-0.132-0.45-0.256-0.611-0.372v0c-0.5-0.361-0.814-0.805-0.943-1.329-0.123-0.522-0.153-1.05-0.092-1.585 0.068-0.532 0.186-1.024 0.355-1.476 0.163-0.456 0.301-0.803 0.414-1.043v0l3.497-7.349-1.785-0.85 0.944-1.984 1.785 0.85 1.839-3.864 2.928 1.393-1.838 3.864 2.173 1.034-0.944 1.984z" fill="#ff4057" data-fill-palette-color="primary"></path><path d="M210.539 19.023l2.469 1.496-0.498 1.509-4.245 7.006-0.027 0.044-2.749 4.537-2.774-1.681zM212.481 24.175l1.415-2.335c0.512 0.017 1.071 0.131 1.676 0.343 0.606 0.212 1.365 0.594 2.277 1.147v0l-1.746 2.881c-0.357-0.38-0.835-0.763-1.432-1.149v0c-0.334-0.202-0.69-0.382-1.069-0.537-0.373-0.152-0.746-0.269-1.121-0.35z" fill="#ff4057" data-fill-palette-color="primary"></path><path d="M226.978 33.606l1.568-1.975c0.735 0.655 1.287 1.396 1.655 2.223 0.368 0.827 0.55 1.679 0.547 2.558 0.001 0.874-0.163 1.764-0.491 2.67-0.329 0.897-0.817 1.752-1.463 2.566v0c-0.642 0.808-1.366 1.467-2.171 1.976-0.8 0.514-1.626 0.859-2.48 1.037-0.848 0.182-1.714 0.184-2.597 0.007-0.884-0.177-1.719-0.533-2.506-1.067v0l1.594-2.008c0.825 0.397 1.747 0.408 2.767 0.033 1.014-0.379 1.924-1.077 2.731-2.093v0c0.412-0.519 0.746-1.046 1.002-1.582 0.256-0.536 0.423-1.071 0.501-1.606 0.079-0.525 0.066-1.025-0.038-1.5-0.103-0.465-0.309-0.878-0.619-1.239zM217.947 32.966v0c0.646-0.814 1.367-1.475 2.163-1.983 0.79-0.513 1.615-0.855 2.473-1.028 0.853-0.177 1.714-0.179 2.583-0.006 0.873 0.168 1.706 0.509 2.5 1.024v0l-1.548 1.949c-0.821-0.402-1.73-0.407-2.727-0.014-0.992 0.397-1.894 1.106-2.705 2.127v0c-0.412 0.519-0.748 1.049-1.009 1.59-0.261 0.541-0.438 1.073-0.532 1.595-0.09 0.517-0.088 1.008 0.005 1.474 0.103 0.465 0.311 0.87 0.624 1.216v0l-1.594 2.007c-0.727-0.666-1.266-1.406-1.617-2.219-0.357-0.818-0.541-1.663-0.552-2.536-0.006-0.878 0.155-1.765 0.484-2.661 0.339-0.898 0.823-1.742 1.452-2.535z" fill="#ff4057" data-fill-palette-color="primary"></path><path d="M244.92 38.998l-11.532 11.37c-0.432 0.426-0.716 0.819-0.852 1.177-0.136 0.359-0.163 0.699-0.081 1.021 0.082 0.321 0.23 0.63 0.444 0.928 0.22 0.302 0.479 0.605 0.778 0.908v0l-1.408 1.388c-0.186-0.139-0.375-0.291-0.566-0.456v0c-0.147-0.129-0.319-0.283-0.515-0.462-0.196-0.189-0.387-0.378-0.573-0.566v0c-0.186-0.189-0.367-0.387-0.543-0.596-0.176-0.199-0.328-0.387-0.455-0.565v0c-0.337-0.52-0.478-1.046-0.425-1.579 0.058-0.527 0.205-1.034 0.44-1.521 0.24-0.482 0.514-0.909 0.823-1.281 0.313-0.368 0.564-0.645 0.753-0.831v0l0.231-0.228 11.19-11.032z" fill="#ff4057" data-fill-palette-color="primary"></path><path d="M253.1 57.896l1.626 2.424-1.076 1.138-16.202 10.871-1.819-2.711zM256.645 71.404v0c-0.557 0.634-1.259 1.235-2.104 1.803v0c-0.846 0.567-1.731 1.019-2.656 1.354-0.929 0.33-1.834 0.496-2.715 0.498-0.878-0.007-1.706-0.195-2.482-0.564-0.777-0.369-1.443-0.968-1.999-1.796v0c-0.35-0.521-0.621-1.057-0.815-1.608-0.195-0.541-0.312-1.047-0.349-1.516v0l2.311-1.551c-0.247 0.871-0.131 1.663 0.346 2.375v0c0.299 0.446 0.681 0.778 1.146 0.995 0.461 0.211 0.97 0.319 1.528 0.324 0.551 0.008 1.141-0.089 1.769-0.293 0.624-0.209 1.232-0.511 1.822-0.908v0c0.579-0.389 1.082-0.822 1.508-1.301 0.432-0.483 0.766-0.98 1.002-1.492 0.236-0.511 0.357-1.02 0.361-1.527 0-0.513-0.153-0.998-0.459-1.455v0c-0.256-0.382-0.57-0.68-0.94-0.894-0.37-0.214-0.783-0.353-1.238-0.417v0l2.363-1.586c0.42 0.213 0.823 0.494 1.207 0.841 0.38 0.341 0.72 0.735 1.019 1.181v0c0.326 0.486 0.592 1.026 0.797 1.62 0.205 0.593 0.299 1.215 0.281 1.864-0.021 0.644-0.163 1.315-0.426 2.013-0.267 0.691-0.692 1.372-1.276 2.04z" fill="#ff4057" data-fill-palette-color="primary"></path><path d="M263.716 75.107l1.292 2.583-1.226 1.011-7.326 3.665-0.047 0.023-4.743 2.373-1.451-2.9zM262.613 80.502l2.442-1.222c0.424 0.287 0.836 0.681 1.235 1.184 0.399 0.502 0.838 1.23 1.316 2.185v0l-3.013 1.507c-0.1-0.512-0.3-1.09-0.599-1.736v0c-0.175-0.349-0.381-0.691-0.618-1.024-0.234-0.327-0.488-0.625-0.763-0.894z" fill="#ff4057" data-fill-palette-color="primary"></path><path d="M269.853 96.208l2.379-0.835c0.273 0.946 0.345 1.867 0.216 2.763-0.129 0.895-0.43 1.714-0.902 2.456-0.465 0.74-1.077 1.406-1.838 1.998-0.756 0.583-1.625 1.047-2.605 1.391v0c-0.974 0.342-1.937 0.514-2.89 0.515-0.951 0.008-1.834-0.14-2.651-0.445-0.814-0.298-1.548-0.758-2.202-1.378-0.654-0.621-1.171-1.367-1.551-2.239v0l2.419-0.848c0.486 0.775 1.261 1.276 2.323 1.502 1.06 0.219 2.202 0.114 3.426-0.316v0c0.625-0.219 1.189-0.487 1.692-0.804 0.502-0.317 0.929-0.681 1.28-1.092 0.347-0.403 0.602-0.832 0.767-1.289 0.161-0.448 0.206-0.908 0.137-1.379zM262.552 90.854v0c0.981-0.344 1.943-0.519 2.887-0.525 0.942-0.013 1.822 0.137 2.641 0.448 0.817 0.305 1.546 0.762 2.189 1.371 0.649 0.607 1.173 1.34 1.57 2.199v0l-2.35 0.825c-0.48-0.778-1.246-1.266-2.299-1.466-1.051-0.193-2.192-0.074-3.423 0.358v0c-0.625 0.219-1.192 0.489-1.701 0.808-0.509 0.319-0.942 0.674-1.3 1.066-0.351 0.389-0.612 0.806-0.781 1.249-0.161 0.448-0.201 0.902-0.121 1.362v0l-2.418 0.849c-0.26-0.951-0.322-1.864-0.186-2.74 0.134-0.882 0.429-1.695 0.885-2.439 0.463-0.746 1.072-1.411 1.828-1.995 0.765-0.579 1.625-1.036 2.579-1.37z" fill="#ff4057" data-fill-palette-color="primary"></path><path d="M0.233 139.974c0-4.388 3.557-7.945 7.944-7.945 4.388 0 7.945 3.557 7.945 7.945 0 4.388-3.557 7.945-7.945 7.945-4.388 0-7.945-3.557-7.944-7.945z" fill="#ff4057" data-fill-palette-color="primary"></path><path d="M263.878 139.974c0-4.388 3.557-7.945 7.945-7.945 4.388 0 7.945 3.557 7.944 7.945 0 4.388-3.557 7.945-7.944 7.945-4.388 0-7.945-3.557-7.945-7.945z" fill="#ff4057" data-fill-palette-color="primary"></path></g><g id="text-1"><path d="M21.73 185.815l-2.101-0.869c0.227-0.348 0.404-0.791 0.529-1.326 0.125-0.536 0.095-1.184-0.09-1.944v0l2.457-0.765c0.239 0.956 0.29 1.823 0.154 2.604-0.137 0.78-0.453 1.547-0.949 2.3zM7.962 185.447l2.527-0.787c0.257 0.592 0.57 1.068 0.938 1.428 0.361 0.362 0.756 0.692 1.185 0.99v0l-1.301 1.665c-0.83-0.319-1.513-0.73-2.05-1.235-0.544-0.503-0.977-1.19-1.299-2.061zM13.042 176.041v0c0.972-0.303 1.928-0.447 2.867-0.433 0.942 0.021 1.819 0.2 2.634 0.538 0.823 0.343 1.55 0.825 2.181 1.446 0.63 0.615 1.121 1.371 1.474 2.27v0l-2.477 0.771c-0.452-0.794-1.187-1.314-2.206-1.559-1.023-0.236-2.148-0.164-3.373 0.218v0c-0.633 0.197-1.206 0.445-1.719 0.744-0.513 0.299-0.946 0.634-1.297 1.006-0.352 0.372-0.617 0.776-0.795 1.212-0.185 0.438-0.242 0.89-0.169 1.357v0l-2.527 0.787c-0.246-0.953-0.282-1.866-0.108-2.739 0.165-0.877 0.492-1.68 0.981-2.409 0.495-0.731 1.131-1.375 1.908-1.931 0.785-0.551 1.661-0.977 2.626-1.278z" fill="#dcdcdc" data-fill-palette-color="secondary"></path><path d="M26.761 197.296l2.278-1.082c0.372 0.912 0.541 1.82 0.506 2.724-0.034 0.904-0.246 1.75-0.635 2.538-0.384 0.785-0.923 1.512-1.617 2.181-0.69 0.66-1.505 1.213-2.443 1.659v0c-0.932 0.443-1.872 0.716-2.819 0.818-0.944 0.109-1.839 0.055-2.683-0.161-0.841-0.21-1.62-0.589-2.336-1.137-0.716-0.548-1.309-1.235-1.779-2.062v0l2.315-1.1c0.566 0.72 1.389 1.135 2.469 1.247 1.077 0.106 2.202-0.12 3.374-0.676v0c0.598-0.284 1.131-0.611 1.597-0.979 0.466-0.368 0.852-0.775 1.157-1.221 0.302-0.437 0.511-0.891 0.626-1.364 0.112-0.463 0.109-0.924-0.01-1.385zM18.935 192.745v0c0.939-0.446 1.877-0.722 2.815-0.828 0.935-0.112 1.826-0.057 2.673 0.166 0.844 0.217 1.618 0.594 2.322 1.132 0.71 0.535 1.308 1.209 1.794 2.02v0l-2.249 1.069c-0.56-0.723-1.373-1.127-2.442-1.214-1.065-0.081-2.187 0.159-3.365 0.718v0c-0.598 0.284-1.134 0.612-1.606 0.983-0.472 0.371-0.866 0.77-1.18 1.198-0.308 0.424-0.523 0.866-0.644 1.326-0.112 0.463-0.104 0.918 0.024 1.367v0l-2.315 1.1c-0.359-0.918-0.517-1.82-0.475-2.705 0.04-0.891 0.247-1.731 0.621-2.52 0.381-0.791 0.916-1.517 1.607-2.176 0.7-0.657 1.506-1.202 2.42-1.636z" fill="#dcdcdc" data-fill-palette-color="secondary"></path><path d="M34.463 206.146l1.687 2.382-1.064 1.177-11.057 7.829-1.887-2.664zM43.575 218.743v0c0.351 0.495 0.584 1.03 0.701 1.606 0.111 0.579 0.101 1.163-0.029 1.751-0.135 0.582-0.388 1.142-0.76 1.679-0.372 0.537-0.851 1.013-1.437 1.428v0l-8.385 5.937-1.856-2.621 6.703-4.746c0.495-0.351 0.963-0.686 1.403-1.006 0.446-0.324 0.81-0.655 1.092-0.992 0.287-0.331 0.459-0.667 0.518-1.007 0.056-0.331-0.06-0.701-0.351-1.111v0c-0.073-0.102-0.248-0.307-0.525-0.615-0.283-0.304-0.681-0.599-1.192-0.887v0l1.725-1.221c0.511 0.228 0.976 0.497 1.392 0.809 0.421 0.317 0.755 0.649 1.001 0.996zM39.221 216.16v0c-0.137 0.362-0.325 0.687-0.565 0.977-0.245 0.293-0.519 0.564-0.822 0.813-0.307 0.243-0.633 0.482-0.978 0.718-0.346 0.236-0.709 0.489-1.091 0.759v0l-6.924 4.903-1.874-2.647 6.702-4.745c0.495-0.351 0.965-0.683 1.409-0.998 0.45-0.318 0.818-0.643 1.105-0.974 0.287-0.331 0.457-0.67 0.511-1.016 0.048-0.342-0.066-0.709-0.344-1.102v0c-0.125-0.176-0.34-0.413-0.645-0.711-0.31-0.293-0.664-0.551-1.061-0.774v0l1.725-1.221c0.451 0.202 0.885 0.459 1.302 0.77 0.413 0.306 0.759 0.655 1.037 1.048v0c0.476 0.672 0.74 1.335 0.793 1.989 0.044 0.653-0.05 1.39-0.28 2.211z" fill="#dcdcdc" data-fill-palette-color="secondary"></path><path d="M49.682 225.952l2.13 1.996-0.807 1.366-9.265 9.885-2.382-2.232zM61.133 236.469v0c0.443 0.415 0.779 0.893 1.008 1.433 0.225 0.545 0.332 1.119 0.322 1.721-0.015 0.598-0.151 1.197-0.408 1.797-0.257 0.6-0.631 1.163-1.122 1.687v0l-7.025 7.496-2.344-2.196 5.616-5.992c0.415-0.443 0.806-0.865 1.173-1.267 0.372-0.407 0.662-0.804 0.872-1.19 0.215-0.382 0.316-0.745 0.305-1.091-0.011-0.335-0.199-0.674-0.566-1.018v0c-0.092-0.086-0.304-0.252-0.638-0.497-0.338-0.241-0.787-0.451-1.345-0.63v0l1.445-1.542c0.547 0.12 1.056 0.291 1.527 0.513 0.476 0.226 0.869 0.485 1.18 0.776zM56.349 234.81v0c-0.062 0.382-0.181 0.739-0.357 1.07-0.182 0.336-0.396 0.657-0.643 0.961-0.252 0.299-0.523 0.599-0.814 0.9-0.291 0.301-0.597 0.621-0.917 0.962v0l-5.802 6.191-2.366-2.218 5.616-5.992c0.415-0.443 0.808-0.863 1.18-1.259 0.377-0.402 0.672-0.794 0.888-1.176 0.215-0.382 0.314-0.748 0.297-1.098-0.021-0.345-0.207-0.682-0.558-1.011v0c-0.158-0.148-0.416-0.337-0.774-0.567-0.363-0.225-0.761-0.407-1.194-0.546v0l1.445-1.542c0.482 0.108 0.959 0.272 1.43 0.494 0.466 0.217 0.874 0.49 1.225 0.819v0c0.6 0.563 0.992 1.159 1.176 1.79 0.173 0.631 0.229 1.372 0.168 2.222z" fill="#dcdcdc" data-fill-palette-color="secondary"></path><path d="M73.267 248.262l1.372-2.116c0.764 0.603 1.356 1.294 1.773 2.072 0.415 0.784 0.669 1.61 0.764 2.477 0.1 0.871 0.035 1.755-0.197 2.652-0.228 0.891-0.6 1.734-1.117 2.531v0c-0.231 0.357-0.486 0.699-0.764 1.025v0l-7.7-4.989 1.28-1.975 5.189 3.362c0.25-0.386 0.429-0.803 0.535-1.249 0.103-0.44 0.131-0.895 0.087-1.365-0.049-0.464-0.169-0.907-0.36-1.33-0.197-0.427-0.484-0.792-0.862-1.095zM67.633 256.766v0c0.164 0.106 0.382 0.218 0.654 0.337 0.274 0.128 0.581 0.231 0.921 0.31 0.34 0.079 0.697 0.136 1.073 0.171 0.374 0.026 0.734 0.002 1.082-0.072v0l0.005 2.147c-0.89 0.296-1.768 0.388-2.635 0.276-0.857-0.115-1.794-0.502-2.812-1.162v0c-0.825-0.535-1.49-1.202-1.994-2.002-0.494-0.802-0.806-1.661-0.936-2.577-0.134-0.909-0.101-1.852 0.1-2.827 0.21-0.978 0.605-1.914 1.185-2.81v0c0.554-0.855 1.218-1.571 1.991-2.15 0.772-0.589 1.584-1.014 2.436-1.277 0.855-0.268 1.715-0.376 2.578-0.324 0.873 0.051 1.689 0.292 2.447 0.725v0l-1.394 2.151c-0.618-0.251-1.221-0.322-1.808-0.211-0.581 0.114-1.116 0.324-1.605 0.63-0.487 0.316-0.922 0.678-1.303 1.088-0.382 0.409-0.68 0.781-0.897 1.115v0c-0.379 0.585-0.66 1.172-0.841 1.76-0.186 0.594-0.246 1.175-0.181 1.741 0.063 0.556 0.244 1.085 0.543 1.586 0.301 0.511 0.764 0.969 1.391 1.375z" fill="#dcdcdc" data-fill-palette-color="secondary"></path><path d="M84.815 252.08l2.607 1.243-0.346 1.55-3.525 7.395-0.022 0.047-2.283 4.788-2.927-1.396zM87.262 257.013l1.175-2.465c0.511-0.035 1.078 0.023 1.702 0.174 0.624 0.151 1.417 0.455 2.38 0.915v0l-1.45 3.041c-0.393-0.342-0.906-0.676-1.539-1.001v0c-0.353-0.168-0.725-0.311-1.117-0.428-0.386-0.114-0.769-0.193-1.151-0.236z" fill="#dcdcdc" data-fill-palette-color="secondary"></path><path d="M106.997 262.96l-1.937 1.19c-0.148-0.389-0.403-0.791-0.763-1.207-0.36-0.416-0.902-0.772-1.627-1.069v0l0.824-2.438c0.914 0.368 1.646 0.836 2.198 1.405 0.551 0.569 0.986 1.276 1.305 2.119zM98.612 273.887l0.847-2.508c0.63 0.139 1.199 0.166 1.707 0.08 0.505-0.08 1.004-0.205 1.497-0.378v0l0.584 2.031c-0.745 0.484-1.48 0.796-2.204 0.934-0.726 0.145-1.537 0.092-2.431-0.159zM93.983 264.251v0c0.326-0.965 0.771-1.823 1.334-2.575 0.57-0.75 1.231-1.355 1.982-1.815 0.761-0.465 1.578-0.77 2.452-0.917 0.867-0.149 1.768-0.102 2.702 0.14v0l-0.83 2.458c-0.908-0.101-1.761 0.189-2.558 0.87-0.792 0.689-1.394 1.642-1.804 2.858v0c-0.212 0.628-0.348 1.237-0.408 1.828-0.06 0.591-0.042 1.138 0.053 1.641 0.095 0.503 0.266 0.955 0.514 1.355 0.245 0.407 0.578 0.718 0.998 0.934v0l-0.847 2.507c-0.916-0.361-1.676-0.868-2.28-1.521-0.613-0.649-1.071-1.385-1.374-2.209-0.301-0.831-0.448-1.723-0.442-2.678 0.015-0.959 0.184-1.918 0.508-2.876z" fill="#dcdcdc" data-fill-palette-color="secondary"></path><path d="M119.173 265.569l0.463-2.478c0.936 0.267 1.746 0.681 2.429 1.241 0.682 0.567 1.231 1.234 1.648 2 0.424 0.767 0.7 1.61 0.826 2.528 0.128 0.911 0.105 1.832-0.069 2.765v0c-0.078 0.418-0.184 0.831-0.317 1.239v0l-9.019-1.685 0.432-2.314 6.078 1.135c0.085-0.453 0.091-0.905 0.02-1.358-0.073-0.446-0.219-0.878-0.439-1.295-0.221-0.41-0.501-0.775-0.839-1.094-0.345-0.32-0.749-0.548-1.213-0.684zM117.197 275.577v0c0.192 0.036 0.436 0.057 0.733 0.062 0.302 0.014 0.626-0.007 0.97-0.063 0.344-0.056 0.697-0.139 1.057-0.25 0.356-0.118 0.68-0.277 0.973-0.478v0l0.821 1.984c-0.71 0.612-1.488 1.031-2.331 1.257-0.836 0.22-1.85 0.218-3.043-0.005v0c-0.967-0.181-1.835-0.545-2.605-1.093-0.762-0.554-1.377-1.229-1.846-2.027-0.47-0.79-0.798-1.674-0.984-2.653-0.178-0.984-0.169-2.001 0.027-3.049v0c0.187-1.001 0.528-1.916 1.024-2.746 0.49-0.838 1.079-1.54 1.766-2.107 0.689-0.574 1.443-1 2.262-1.281 0.827-0.285 1.673-0.372 2.539-0.26v0l-0.471 2.52c-0.668 0.003-1.252 0.167-1.752 0.492-0.494 0.326-0.909 0.724-1.245 1.194-0.33 0.477-0.594 0.978-0.791 1.501-0.197 0.524-0.332 0.981-0.406 1.372v0c-0.128 0.686-0.164 1.335-0.108 1.949 0.054 0.62 0.219 1.18 0.495 1.678 0.27 0.49 0.639 0.91 1.106 1.26 0.472 0.358 1.075 0.605 1.809 0.743z" fill="#dcdcdc" data-fill-palette-color="secondary"></path><path d="M151.564 266.806l-1.402 1.79c-0.274-0.313-0.653-0.602-1.135-0.867-0.482-0.265-1.115-0.41-1.897-0.436v0l-0.076-2.572c0.985 0.027 1.834 0.211 2.55 0.552 0.715 0.342 1.368 0.853 1.96 1.533zM147.505 279.968l-0.078-2.646c0.639-0.089 1.182-0.262 1.628-0.519 0.446-0.25 0.87-0.542 1.272-0.875v0l1.254 1.7c-0.53 0.713-1.111 1.261-1.741 1.643-0.63 0.388-1.409 0.621-2.335 0.697zM139.813 272.544v0c-0.03-1.018 0.088-1.977 0.354-2.878 0.273-0.901 0.682-1.698 1.227-2.392 0.551-0.7 1.211-1.271 1.98-1.712 0.761-0.441 1.622-0.711 2.582-0.809v0l0.077 2.594c-0.887 0.222-1.585 0.79-2.095 1.705-0.503 0.922-0.736 2.024-0.698 3.307v0c0.02 0.662 0.104 1.281 0.254 1.855 0.15 0.575 0.356 1.081 0.62 1.521 0.264 0.439 0.582 0.803 0.954 1.091 0.372 0.296 0.792 0.472 1.261 0.528v0l0.078 2.646c-0.984-0.02-1.873-0.231-2.667-0.633-0.8-0.395-1.486-0.926-2.056-1.593-0.571-0.674-1.02-1.46-1.347-2.357-0.32-0.905-0.495-1.862-0.524-2.873z" fill="#dcdcdc" data-fill-palette-color="secondary"></path><path d="M163.976 265.05l-0.43-2.484c0.979-0.112 1.899-0.031 2.761 0.245 0.862 0.276 1.619 0.708 2.273 1.295 0.652 0.581 1.208 1.295 1.665 2.143 0.45 0.842 0.763 1.776 0.941 2.8v0c0.176 1.017 0.186 1.996 0.029 2.936-0.149 0.939-0.442 1.786-0.877 2.54-0.429 0.754-1.004 1.401-1.724 1.944-0.72 0.542-1.542 0.928-2.465 1.158v0l-0.436-2.526c0.845-0.351 1.467-1.032 1.866-2.042 0.392-1.009 0.477-2.153 0.256-3.431v0c-0.113-0.653-0.284-1.253-0.513-1.801-0.229-0.548-0.518-1.029-0.865-1.443-0.34-0.408-0.721-0.732-1.144-0.97-0.415-0.233-0.861-0.354-1.337-0.364zM157.486 271.363v0c-0.177-1.024-0.19-2.002-0.04-2.934 0.144-0.931 0.437-1.774 0.88-2.53 0.436-0.755 1.008-1.399 1.715-1.931 0.707-0.54 1.516-0.934 2.428-1.184v0l0.424 2.453c-0.846 0.344-1.455 1.019-1.826 2.025-0.364 1.004-0.435 2.149-0.214 3.434v0c0.113 0.653 0.284 1.257 0.515 1.812 0.23 0.555 0.509 1.041 0.836 1.459 0.326 0.411 0.694 0.737 1.103 0.977 0.415 0.233 0.856 0.347 1.323 0.345v0l0.437 2.525c-0.981 0.099-1.892 0.008-2.733-0.271-0.848-0.278-1.601-0.704-2.259-1.276-0.659-0.58-1.214-1.291-1.664-2.133-0.444-0.85-0.752-1.774-0.925-2.771z" fill="#dcdcdc" data-fill-palette-color="secondary"></path><path d="M174.792 260.006l2.744-0.897 0.813 1.342 4.214 12.898-3.083 1.007zM185.999 258.094v0c0.378 0.192 0.71 0.454 0.994 0.787 0.289 0.324 0.539 0.683 0.748 1.076 0.216 0.392 0.4 0.798 0.552 1.218 0.159 0.418 0.304 0.829 0.436 1.233v0l2.469 7.558 0.166 0.507-3.103 1.014-2.55-7.806c-0.188-0.577-0.396-1.122-0.623-1.635-0.224-0.506-0.495-0.932-0.812-1.276-0.32-0.35-0.679-0.585-1.078-0.704-0.394-0.128-0.879-0.098-1.456 0.091v0c-0.239 0.078-0.544 0.222-0.916 0.431-0.374 0.203-0.722 0.452-1.043 0.748v0l-0.64-1.959c0.386-0.39 0.816-0.758 1.29-1.104 0.483-0.341 0.98-0.595 1.49-0.762v0c0.762-0.249 1.456-0.303 2.082-0.163 0.626 0.14 1.29 0.389 1.994 0.746z" fill="#dcdcdc" data-fill-palette-color="secondary"></path><path d="M196.51 253.885l3.578 7.52c0.258 0.542 0.532 0.932 0.824 1.172 0.292 0.24 0.607 0.375 0.946 0.407 0.342 0.038 0.69-0.004 1.042-0.124 0.348-0.112 0.709-0.256 1.08-0.433v0l0.849 1.785c-0.193 0.13-0.389 0.254-0.587 0.373v0c-0.17 0.097-0.379 0.211-0.625 0.343-0.249 0.126-0.493 0.246-0.732 0.36v0c-0.246 0.117-0.496 0.224-0.751 0.322-0.258 0.107-0.483 0.187-0.673 0.24v0c-0.596 0.16-1.138 0.124-1.627-0.107-0.482-0.234-0.911-0.544-1.287-0.928-0.37-0.388-0.677-0.79-0.922-1.207-0.251-0.414-0.433-0.74-0.547-0.979v0l-3.497-7.35-1.785 0.849-0.944-1.984 1.785-0.849-1.838-3.864 2.929-1.394 1.838 3.864 2.173-1.033 0.944 1.984z" fill="#dcdcdc" data-fill-palette-color="secondary"></path><path d="M202.715 248.014l2.469-1.497 1.107 1.14 4.245 7.006 0.027 0.045 2.749 4.536-2.774 1.681zM208.181 248.677l-1.415-2.335c0.252-0.446 0.612-0.888 1.08-1.327 0.468-0.439 1.159-0.934 2.071-1.488v0l1.746 2.881c-0.502 0.141-1.062 0.387-1.682 0.738v0c-0.334 0.202-0.658 0.435-0.971 0.699-0.307 0.26-0.584 0.537-0.829 0.832z" fill="#dcdcdc" data-fill-palette-color="secondary"></path><path d="M220.621 238.338l-1.568-1.974c0.805-0.568 1.651-0.937 2.54-1.109 0.888-0.171 1.76-0.155 2.615 0.047 0.851 0.197 1.681 0.558 2.49 1.082 0.799 0.523 1.521 1.192 2.167 2.006v0c0.642 0.808 1.12 1.662 1.434 2.562 0.319 0.895 0.469 1.779 0.448 2.65-0.015 0.867-0.209 1.711-0.581 2.533-0.372 0.821-0.908 1.554-1.607 2.198v0l-1.594-2.007c0.573-0.714 0.793-1.609 0.658-2.687-0.14-1.073-0.613-2.118-1.42-3.134v0c-0.412-0.519-0.85-0.964-1.314-1.335-0.464-0.371-0.948-0.655-1.451-0.851-0.494-0.196-0.984-0.297-1.469-0.303-0.476-0.005-0.925 0.102-1.348 0.322zM217.953 246.99v0c-0.646-0.814-1.127-1.666-1.442-2.556-0.32-0.886-0.468-1.766-0.441-2.642 0.021-0.871 0.214-1.71 0.579-2.517 0.361-0.812 0.882-1.547 1.563-2.204v0l1.549 1.95c-0.578 0.708-0.788 1.592-0.632 2.653 0.162 1.056 0.648 2.095 1.459 3.116v0c0.412 0.519 0.852 0.966 1.321 1.343 0.468 0.376 0.946 0.669 1.433 0.879 0.483 0.204 0.962 0.314 1.436 0.329 0.476 0.005 0.918-0.106 1.327-0.332v0l1.594 2.007c-0.813 0.557-1.656 0.915-2.529 1.073-0.877 0.162-1.742 0.15-2.594-0.037-0.857-0.193-1.684-0.551-2.483-1.074-0.798-0.533-1.511-1.196-2.14-1.988z" fill="#dcdcdc" data-fill-palette-color="secondary"></path><path d="M226.049 222.345l11.533 11.37c0.432 0.426 0.829 0.704 1.189 0.835 0.361 0.131 0.701 0.153 1.022 0.067 0.32-0.086 0.627-0.239 0.921-0.458 0.299-0.224 0.598-0.488 0.897-0.79v0l1.408 1.388c-0.137 0.188-0.286 0.379-0.447 0.573v0c-0.127 0.149-0.279 0.323-0.455 0.521-0.186 0.199-0.372 0.392-0.558 0.581v0c-0.186 0.189-0.382 0.373-0.588 0.551-0.196 0.179-0.382 0.333-0.559 0.463v0c-0.515 0.344-1.04 0.493-1.572 0.448-0.528-0.051-1.037-0.19-1.527-0.419-0.485-0.233-0.916-0.501-1.293-0.804-0.372-0.308-0.652-0.555-0.842-0.741v0l-0.23-0.228-11.19-11.032z" fill="#dcdcdc" data-fill-palette-color="secondary"></path><path d="M240.564 213.64l1.626-2.423 1.461 0.564 16.202 10.871-1.819 2.711zM251.719 205.239v0c0.798 0.275 1.62 0.696 2.466 1.263v0c0.846 0.567 1.599 1.216 2.26 1.945 0.657 0.735 1.154 1.509 1.491 2.323 0.326 0.815 0.466 1.652 0.419 2.511-0.047 0.859-0.348 1.702-0.904 2.531v0c-0.35 0.521-0.743 0.976-1.18 1.363-0.427 0.386-0.85 0.685-1.27 0.898v0l-2.311-1.55c0.9-0.102 1.589-0.509 2.067-1.221v0c0.299-0.446 0.461-0.925 0.485-1.438 0.021-0.507-0.072-1.019-0.279-1.536-0.202-0.513-0.515-1.022-0.942-1.526-0.43-0.498-0.94-0.946-1.531-1.342v0c-0.579-0.389-1.171-0.689-1.776-0.902-0.611-0.217-1.197-0.337-1.76-0.362-0.563-0.025-1.08 0.057-1.55 0.245-0.475 0.194-0.865 0.52-1.172 0.977v0c-0.256 0.382-0.413 0.785-0.471 1.209-0.057 0.423-0.03 0.858 0.083 1.303v0l-2.363-1.586c0.038-0.47 0.145-0.948 0.321-1.435 0.172-0.481 0.407-0.945 0.706-1.391v0c0.326-0.486 0.725-0.937 1.196-1.351 0.471-0.414 1.011-0.737 1.62-0.968 0.604-0.225 1.279-0.347 2.023-0.368 0.741-0.015 1.532 0.121 2.372 0.408z" fill="#dcdcdc" data-fill-palette-color="secondary"></path><path d="M250.215 198.086l1.291-2.582 1.544 0.374 7.326 3.666 0.047 0.023 4.744 2.373-1.451 2.901zM255.193 195.734l-2.442-1.222c-0.025-0.512 0.044-1.078 0.206-1.698 0.162-0.621 0.482-1.408 0.96-2.363v0l3.013 1.508c-0.349 0.387-0.693 0.893-1.03 1.52v0c-0.175 0.349-0.325 0.719-0.449 1.109-0.122 0.384-0.208 0.766-0.258 1.146z" fill="#dcdcdc" data-fill-palette-color="secondary"></path><path d="M260.208 180.355l-2.379-0.835c0.378-0.909 0.898-1.673 1.558-2.291 0.66-0.618 1.407-1.07 2.238-1.355 0.825-0.287 1.72-0.424 2.683-0.411 0.955 0.017 1.923 0.198 2.903 0.542v0c0.974 0.342 1.834 0.81 2.579 1.404 0.747 0.587 1.345 1.255 1.792 2.004 0.449 0.742 0.735 1.559 0.858 2.452 0.123 0.893 0.06 1.799-0.189 2.716v0l-2.418-0.848c0.105-0.909-0.187-1.784-0.875-2.625-0.691-0.834-1.648-1.465-2.872-1.894v0c-0.625-0.219-1.233-0.362-1.823-0.429-0.59-0.067-1.151-0.049-1.682 0.052-0.522 0.098-0.99 0.273-1.405 0.528-0.405 0.249-0.728 0.58-0.968 0.99zM262.562 189.098v0c-0.981-0.344-1.841-0.809-2.582-1.394-0.743-0.579-1.337-1.245-1.782-2-0.447-0.748-0.731-1.561-0.852-2.439-0.127-0.88-0.078-1.779 0.149-2.698v0l2.349 0.825c-0.111 0.907 0.182 1.768 0.879 2.581 0.7 0.807 1.665 1.427 2.896 1.859v0c0.625 0.219 1.236 0.364 1.833 0.432 0.597 0.069 1.157 0.062 1.681-0.019 0.517-0.085 0.981-0.247 1.391-0.488 0.405-0.249 0.72-0.579 0.945-0.988v0l2.419 0.849c-0.391 0.905-0.914 1.657-1.568 2.255-0.656 0.605-1.394 1.056-2.215 1.352-0.827 0.294-1.719 0.432-2.673 0.414-0.959-0.026-1.916-0.207-2.87-0.541z" fill="#dcdcdc" data-fill-palette-color="secondary"></path></g></svg></g></svg></g></svg></g></svg></g><defs></defs></svg><rect width="280" height="280" fill="none" stroke="none" visibility="hidden"></rect></g></svg></g></svg>